# xmcd
#
# Track frame offsets:
#	150
#	17167
#	28565
#	39270
#	53482
#	63840
#	73465
#	83622
#	92517
#	102450
#	112327
#	123810
#	134527
#	146762
#
# Disc length: 2087 seconds
#
# Revision: 1
# Processed by: cddbd v1.4PL0 Copyright (c) Steve Scherf et al.
# Submitted via: audiograbber 1.82.02
#
DISCID=bf08250e
DTITLE=Johnny Winter - Broke and Lonely
DYEAR=1996
DGENRE=Blues
TTITLE0=Careful with a fool
TTITLE1=Eternally
TTITLE2=Raining teardrops
TTITLE3=Lowdown gal of mine
TTITLE4=Thirty eight special blues
TTITLE5=Silvery moon
TTITLE6=Gonna miss me when i'm gone
TTITLE7=Crazie baby
TTITLE8=Hey hey hey
TTITLE9=Creepy
TTITLE10=The guy you left behind
TTITLE11=Gone for bad
TTITLE12=My world turns around her
TTITLE13=Out of sight
EXTD=
EXTT0=
EXTT1=
EXTT2=
EXTT3=
EXTT4=
EXTT5=
EXTT6=
EXTT7=
EXTT8=
EXTT9=
EXTT10=
EXTT11=
EXTT12=
EXTT13=
PLAYORDER=
